<svg width="177" height="67" viewBox="0 0 177 67" fill="none" xmlns="http://www.w3.org/2000/svg">
<path d="M53.5625 2.75L54.6875 3.0625C57.3333 3.45833 58.6562 4.25 58.6562 5.4375C58.6562 5.77083 58.5312 6.05208 58.2812 6.28125C55.4688 8.80208 51.7292 11.5208 47.0625 14.4375C39.9375 18.875 31.8542 23.1667 22.8125 27.3125C25.7708 29 29.7812 31.8021 34.8438 35.7188C41.6354 40.7396 45.8125 43.25 47.375 43.25C47.9167 43.25 48.375 43.1042 48.75 42.8125C49.1458 42.5 49.3646 42.3438 49.4062 42.3438C49.7604 42.3438 49.9375 42.5104 49.9375 42.8438C49.9375 43.1354 49.5833 43.9688 48.875 45.3438C48.1875 46.7188 47.5938 47.625 47.0938 48.0625C46.6146 48.5 45.8438 48.7188 44.7812 48.7188C43.7188 48.7188 42.3021 48.1979 40.5312 47.1562C38.7604 46.1146 36.8229 44.8125 34.7188 43.25C32.6354 41.6667 30.5521 40.0625 28.4688 38.4375C23.1979 34.375 19.6458 31.9688 17.8125 31.2188C11.3958 41.3438 8.09375 46.5833 7.90625 46.9375C7.73958 47.2917 7.51042 47.5833 7.21875 47.8125C6.94792 48.0208 6.77083 48.125 6.6875 48.125L5.34375 48.3125L4.25 48.25C3.95833 48.25 3.75 48.2917 3.625 48.375C3.5 48.4792 3.36458 48.5521 3.21875 48.5938C3.07292 48.6354 2.94792 48.6979 2.84375 48.7812C2.73958 48.8854 2.57292 48.9375 2.34375 48.9375C2.13542 48.9375 1.83333 48.7604 1.4375 48.4062C1.0625 48.0729 0.875 47.7812 0.875 47.5312C0.875 47.2812 1.02083 46.8438 1.3125 46.2188C1.625 45.5938 5.46875 39.7917 12.8438 28.8125H12.25C10.8542 28.8125 10.1562 28.4375 10.1562 27.6875C10.1562 26.9167 10.5 26.1562 11.1875 25.4062C11.8958 24.6354 12.6042 24.25 13.3125 24.25C14.0208 24.25 14.8021 24.3125 15.6562 24.4375C19.5938 18.625 22.625 14.0625 24.75 10.75C22.3333 13.0208 20.0417 14.1562 17.875 14.1562C16.8333 14.1562 16.0104 13.8021 15.4062 13.0938C14.8021 12.3646 14.5 11.5417 14.5 10.625C14.5 9.70833 14.7292 8.95833 15.1875 8.375C15.6667 7.79167 16.125 7.38542 16.5625 7.15625C17 6.92708 17.3021 6.8125 17.4688 6.8125C17.6354 6.8125 17.7188 6.89583 17.7188 7.0625L17.4688 7.8125C17.4688 8.10417 17.9167 8.25 18.8125 8.25C19.7083 8.25 20.9583 7.76042 22.5625 6.78125C24.1667 5.78125 25.7396 4.79167 27.2812 3.8125C28.8229 2.8125 29.9792 2.3125 30.75 2.3125C31.5208 2.3125 32.0208 2.40625 32.25 2.59375C32.5 2.76042 32.7188 2.875 32.9062 2.9375C33.1146 2.97917 33.2812 3.05208 33.4062 3.15625C33.5312 3.26042 33.6354 3.39583 33.7188 3.5625C33.8021 3.70833 33.9583 3.875 34.1875 4.0625C34.4167 4.25 34.5312 4.5 34.5312 4.8125C34.5312 5.125 34.4479 5.41667 34.2812 5.6875C31.6354 9.6875 28.3854 14.7292 24.5312 20.8125C29.6979 18.125 35.6042 14.6875 42.25 10.5C48.8958 6.29167 52.4896 3.8125 53.0312 3.0625C53.1562 2.85417 53.3333 2.75 53.5625 2.75ZM99.4375 2.75L100.562 3.0625C103.208 3.45833 104.531 4.25 104.531 5.4375C104.531 5.77083 104.406 6.05208 104.156 6.28125C101.344 8.80208 97.6042 11.5208 92.9375 14.4375C85.8125 18.875 77.7292 23.1667 68.6875 27.3125C71.6458 29 75.6562 31.8021 80.7188 35.7188C87.5104 40.7396 91.6875 43.25 93.25 43.25C93.7917 43.25 94.25 43.1042 94.625 42.8125C95.0208 42.5 95.2396 42.3438 95.2812 42.3438C95.6354 42.3438 95.8125 42.5104 95.8125 42.8438C95.8125 43.1354 95.4583 43.9688 94.75 45.3438C94.0625 46.7188 93.4688 47.625 92.9688 48.0625C92.4896 48.5 91.7188 48.7188 90.6562 48.7188C89.5938 48.7188 88.1771 48.1979 86.4062 47.1562C84.6354 46.1146 82.6979 44.8125 80.5938 43.25C78.5104 41.6667 76.4271 40.0625 74.3438 38.4375C69.0729 34.375 65.5208 31.9688 63.6875 31.2188C57.2708 41.3438 53.9688 46.5833 53.7812 46.9375C53.6146 47.2917 53.3854 47.5833 53.0938 47.8125C52.8229 48.0208 52.6458 48.125 52.5625 48.125L51.2188 48.3125L50.125 48.25C49.8333 48.25 49.625 48.2917 49.5 48.375C49.375 48.4792 49.2396 48.5521 49.0938 48.5938C48.9479 48.6354 48.8229 48.6979 48.7188 48.7812C48.6146 48.8854 48.4479 48.9375 48.2188 48.9375C48.0104 48.9375 47.7083 48.7604 47.3125 48.4062C46.9375 48.0729 46.75 47.7812 46.75 47.5312C46.75 47.2812 46.8958 46.8438 47.1875 46.2188C47.5 45.5938 51.3438 39.7917 58.7188 28.8125H58.125C56.7292 28.8125 56.0312 28.4375 56.0312 27.6875C56.0312 26.9167 56.375 26.1562 57.0625 25.4062C57.7708 24.6354 58.4792 24.25 59.1875 24.25C59.8958 24.25 60.6771 24.3125 61.5312 24.4375C65.4688 18.625 68.5 14.0625 70.625 10.75C68.2083 13.0208 65.9167 14.1562 63.75 14.1562C62.7083 14.1562 61.8854 13.8021 61.2812 13.0938C60.6771 12.3646 60.375 11.5417 60.375 10.625C60.375 9.70833 60.6042 8.95833 61.0625 8.375C61.5417 7.79167 62 7.38542 62.4375 7.15625C62.875 6.92708 63.1771 6.8125 63.3438 6.8125C63.5104 6.8125 63.5938 6.89583 63.5938 7.0625L63.3438 7.8125C63.3438 8.10417 63.7917 8.25 64.6875 8.25C65.5833 8.25 66.8333 7.76042 68.4375 6.78125C70.0417 5.78125 71.6146 4.79167 73.1562 3.8125C74.6979 2.8125 75.8542 2.3125 76.625 2.3125C77.3958 2.3125 77.8958 2.40625 78.125 2.59375C78.375 2.76042 78.5938 2.875 78.7812 2.9375C78.9896 2.97917 79.1562 3.05208 79.2812 3.15625C79.4062 3.26042 79.5104 3.39583 79.5938 3.5625C79.6771 3.70833 79.8333 3.875 80.0625 4.0625C80.2917 4.25 80.4062 4.5 80.4062 4.8125C80.4062 5.125 80.3229 5.41667 80.1562 5.6875C77.5104 9.6875 74.2604 14.7292 70.4062 20.8125C75.5729 18.125 81.4792 14.6875 88.125 10.5C94.7708 6.29167 98.3646 3.8125 98.9062 3.0625C99.0312 2.85417 99.2083 2.75 99.4375 2.75ZM121.188 38.7812C121.333 39.7396 121.406 40.5 121.406 41.0625C121.406 41.6042 121.302 42.0833 121.094 42.5C120.906 42.8958 120.469 43.4688 119.781 44.2188C119.115 44.9479 118.312 45.6875 117.375 46.4375C115.083 48.25 112.74 49.1562 110.344 49.1562C106.906 49.1562 105.188 47.6354 105.188 44.5938C105.188 41.9479 107.49 36.6771 112.094 28.7812C112.26 28.4896 112.375 28.2812 112.438 28.1562C110.833 29.2812 107.76 32.3542 103.219 37.375C98.6979 42.375 95.6875 45.9167 94.1875 48C94.0625 48.1875 93.75 48.3958 93.25 48.625C92.75 48.8542 92.3542 48.9688 92.0625 48.9688C91.7917 48.9688 91.5 48.875 91.1875 48.6875C90.8542 48.5208 90.6458 48.4375 90.5625 48.4375C90.2917 48.4375 90.1562 48.3438 90.1562 48.1562C90.1562 47.9896 90.5312 47.0417 91.2812 45.3125C92.0104 43.5625 92.9792 41.3958 94.1875 38.8125C97.5 31.6875 102.427 22.4167 108.969 11C111.26 7 113.052 4.16667 114.344 2.5C115.26 1.3125 116.802 0.71875 118.969 0.71875C119.427 0.71875 119.688 0.854167 119.75 1.125C119.812 1.39583 119.844 1.6875 119.844 2C119.844 2.3125 119.781 2.625 119.656 2.9375L116.312 8.15625C109.688 18.4896 104.698 27.0521 101.344 33.8438C104.594 29.8854 107.75 26.8333 110.812 24.6875C112.708 23.3333 114.125 22.6562 115.062 22.6562C116.021 22.6562 116.885 22.8125 117.656 23.125C118.427 23.4167 118.812 24.1354 118.812 25.2812C118.812 25.6979 118.135 27.2396 116.781 29.9062C112.719 37.9062 110.688 42.3542 110.688 43.25C110.688 44.125 111.052 44.5625 111.781 44.5625C112.844 44.5625 114.479 43.5312 116.688 41.4688C118.354 39.9062 119.406 38.9062 119.844 38.4688C120.094 38.2812 120.323 38.1875 120.531 38.1875C120.927 38.1875 121.146 38.3854 121.188 38.7812ZM140.094 24.1875C140.719 24.1875 141.354 24.4688 142 25.0312C142.667 25.5938 143 26.4583 143 27.625C143 28.7708 142.594 30.2708 141.781 32.125C140.969 33.9583 139.854 35.8333 138.438 37.75C137.021 39.6458 135.458 41.4375 133.75 43.125C132.062 44.7917 130.229 46.1667 128.25 47.25C126.292 48.3125 124.51 48.8438 122.906 48.8438C121.302 48.8438 120.01 48.3438 119.031 47.3438C118.073 46.3229 117.594 44.9167 117.594 43.125C117.594 41.3125 118.031 39.3125 118.906 37.125C119.802 34.9375 120.948 33.0104 122.344 31.3438C123.74 29.6562 125.25 28.1458 126.875 26.8125C130.271 24.0833 133.25 22.7188 135.812 22.7188C136.958 22.7188 137.823 23 138.406 23.5625C138.615 23.75 138.719 23.9167 138.719 24.0625V24.25C139.01 24.2083 139.469 24.1875 140.094 24.1875ZM136.938 28.3438H136.719C135.99 28.3438 135.625 27.8125 135.625 26.75C134.104 27.25 132.51 28.125 130.844 29.375C129.177 30.625 127.688 32.1042 126.375 33.8125C123.708 37.2292 122.354 40.1146 122.312 42.4688C122.312 43.6354 122.74 44.2188 123.594 44.2188C124.448 44.2188 125.719 43.6562 127.406 42.5312C129.094 41.4062 130.76 39.8021 132.406 37.7188C134.073 35.6354 135.312 33.8333 136.125 32.3125C136.958 30.7708 137.375 29.7292 137.375 29.1875C137.375 28.625 137.229 28.3438 136.938 28.3438ZM165.219 13.25C165.219 14.625 164.469 15.9688 162.969 17.2812C161.49 18.5938 160.062 19.25 158.688 19.25C157.708 19.25 157.219 18.6562 157.219 17.4688C157.219 16.2604 157.906 15 159.281 13.6875C160.656 12.375 161.99 11.7188 163.281 11.7188C164.573 11.7188 165.219 12.2292 165.219 13.25ZM156.875 38.4688C157.208 38.2188 157.5 38.1354 157.75 38.2188C158.021 38.3021 158.188 38.5312 158.25 38.9062C158.521 40.2604 158.51 41.3958 158.219 42.3125C158.115 42.4792 157.333 42.9688 155.875 43.7812C154.438 44.5938 152.792 45.5312 150.938 46.5938C149.104 47.6562 147.062 49.0208 144.812 50.6875C142.562 52.3542 140.698 54 139.219 55.625C138.344 57.375 137.104 59.2292 135.5 61.1875C132.396 64.9375 129.812 66.8125 127.75 66.8125C126.917 66.8125 126.208 66.5417 125.625 66C125.042 65.4583 124.75 64.7812 124.75 63.9688C124.75 63.1562 124.958 62.3958 125.375 61.6875C125.771 61 126.448 60.1875 127.406 59.25C128.365 58.3125 129.188 57.5417 129.875 56.9375C130.562 56.3333 131.656 55.4271 133.156 54.2188C134.635 53.0104 135.646 52.1771 136.188 51.7188C137.104 50.1771 138.271 48.1875 139.688 45.75C141.104 43.3125 142.229 41.3958 143.062 40C145.438 36.0208 147.312 33.0521 148.688 31.0938C148.583 31.0729 148.354 31.0833 148 31.125C147.646 31.1667 147.344 31.1875 147.094 31.1875C146.865 31.1667 146.615 31.0417 146.344 30.8125C146.094 30.5625 145.927 30.1875 145.844 29.6875C145.719 28.9583 146.906 27.7396 149.406 26.0312C151.927 24.3021 153.635 23.4375 154.531 23.4375C156.094 23.4375 156.875 24.2188 156.875 25.7812C156.875 25.9479 156.792 26.2708 156.625 26.75C156.458 27.2292 154.667 30.2292 151.25 35.75C147.854 41.2708 145.5 45.0312 144.188 47.0312C144.375 46.9062 144.948 46.4896 145.906 45.7812C146.885 45.0729 147.906 44.3333 148.969 43.5625C150.031 42.7917 151.135 42.0104 152.281 41.2188C154.927 39.3854 156.458 38.4688 156.875 38.4688ZM176.844 13.6875C176.844 14.875 176.292 16.0729 175.188 17.2812C174.083 18.4688 172.927 19.0625 171.719 19.0625C170.531 19.0625 169.938 18.4375 169.938 17.1875C169.938 15.9375 170.458 14.75 171.5 13.625C172.562 12.4792 173.729 11.9062 175 11.9062C175.562 11.9062 176.01 12.0625 176.344 12.375C176.677 12.6875 176.844 13.125 176.844 13.6875ZM171.781 40.9688C171.781 41.5938 171.719 42.0417 171.594 42.3125C170.573 44.3958 168.948 46.0833 166.719 47.375C164.49 48.6458 162.552 49.2812 160.906 49.2812C159.26 49.2812 157.844 48.7292 156.656 47.625C155.469 46.5208 154.875 45.3958 154.875 44.25C154.875 43.1042 155.448 41.4375 156.594 39.25C157.74 37.0625 158.885 35.0417 160.031 33.1875C161.177 31.3333 161.75 30.3333 161.75 30.1875C161.75 30.0208 161.531 29.7083 161.094 29.25C160.677 28.7917 160.469 28.4583 160.469 28.25C160.469 28.0208 160.896 27.4479 161.75 26.5312C162.625 25.5938 163.677 24.6771 164.906 23.7812C166.156 22.8646 167.104 22.4062 167.75 22.4062C168.417 22.4062 169.01 22.6979 169.531 23.2812C170.052 23.8646 170.312 24.3958 170.312 24.875C170.312 25.3542 167.833 29.8646 162.875 38.4062C162.812 38.5312 162.635 38.8125 162.344 39.25C162.073 39.6667 161.854 40.0208 161.688 40.3125C161.542 40.5833 161.365 40.9167 161.156 41.3125C160.74 42.1458 160.531 42.8438 160.531 43.4062C160.531 44.1146 161.01 44.4688 161.969 44.4688C162.927 44.4688 163.917 44.1458 164.938 43.5C165.979 42.8333 166.875 42.1042 167.625 41.3125C169.583 39.2083 170.698 38.1562 170.969 38.1562C171.51 38.1562 171.781 39.0938 171.781 40.9688Z" fill="black"/>
</svg>
